<?xml version="1.0" encoding="UTF-8"?>
<svg xmlns="http://www.w3.org/2000/svg" width="512" height="512" viewBox="0 0 512 512">
  <defs>
    <linearGradient id="grad" x1="0%" y1="0%" x2="100%" y2="100%">
      <stop offset="0%" style="stop-color:#3B82F6;stop-opacity:1" />
      <stop offset="100%" style="stop-color:#8B5CF6;stop-opacity:1" />
    </linearGradient>
  </defs>
  <circle cx="256" cy="256" r="248" fill="url(#grad)" stroke="#ffffff" stroke-width="8"/>
  <g fill="#ffffff" transform="translate(128, 146) scale(1.6)">
    <path d="M16,6L19,10L16,14L6,14L3,10L6,6L16,6M17,5L5,5L1,10L5,15L17,15L21,10L17,5M11,7L13,7L13,12L11,12L11,7M9,9L11,9L11,10L9,10L9,9M13,9L15,9L15,10L13,10L13,9Z" />
  </g>
  <text x="256" y="380" font-family="Arial, sans-serif" font-size="60" font-weight="bold" fill="#ffffff" text-anchor="middle">ATB</text>
</svg> 